<svg xmlns="http://www.w3.org/2000/svg" xmlns:xlink="http://www.w3.org/1999/xlink" width="1920" zoomAndPan="magnify" viewBox="0 0 1440 809.999993" height="1080" preserveAspectRatio="xMidYMid meet" version="1.2"><defs><filter x="0%" y="0%" width="100%" filterUnits="objectBoundingBox" id="8b840a25ee" height="100%"><feColorMatrix values="0 0 0 0 1 0 0 0 0 1 0 0 0 0 1 0 0 0 1 0" type="matrix" in="SourceGraphic"/></filter><clipPath id="d03063f825"><path d="M 31 0 L 644 0 L 644 810 L 31 810 Z M 31 0 "/></clipPath><clipPath id="944e8cee3f"><path d="M 593.171875 -314.425781 L 1163.457031 299.367188 L 570.511719 850.285156 L 0.226562 236.492188 Z M 593.171875 -314.425781 "/></clipPath><clipPath id="f265f4beff"><path d="M 644.222656 -259.480469 L 1112.386719 244.398438 C 1140.582031 274.746094 1138.835938 322.199219 1108.492188 350.394531 L 625.4375 799.210938 C 595.089844 827.40625 547.636719 825.660156 519.441406 795.316406 L 51.277344 291.4375 C 23.082031 261.09375 24.828125 213.636719 55.171875 185.441406 L 538.226562 -263.375 C 568.574219 -291.566406 616.027344 -289.824219 644.222656 -259.480469 Z M 644.222656 -259.480469 "/></clipPath><clipPath id="4a801306a5"><rect x="0" width="644" y="0" height="810"/></clipPath><clipPath id="2891394fef"><path d="M 31 31 L 676 31 L 676 649 L 31 649 Z M 31 31 "/></clipPath><clipPath id="c14de3a35d"><path d="M 593.148438 0.464844 L 1163.433594 614.253906 L 570.488281 1165.171875 L 0.203125 551.382812 Z M 593.148438 0.464844 "/></clipPath><clipPath id="f8a0b291de"><path d="M 644.199219 55.410156 L 1112.363281 559.289062 C 1140.558594 589.632812 1138.8125 637.089844 1108.46875 665.28125 L 625.414062 1114.097656 C 595.066406 1142.292969 547.613281 1140.550781 519.417969 1110.203125 L 51.253906 606.324219 C 23.058594 575.980469 24.804688 528.527344 55.148438 500.332031 L 538.203125 51.515625 C 568.550781 23.320312 616.003906 25.0625 644.199219 55.410156 Z M 644.199219 55.410156 "/></clipPath><clipPath id="e16d3efd56"><rect x="0" width="676" y="0" height="649"/></clipPath><clipPath id="c8b50cfc0f"><path d="M 750 0 L 1440 0 L 1440 810 L 750 810 Z M 750 0 "/></clipPath><clipPath id="e69b05745f"><path d="M 2688.15625 -1450.269531 L 4854.8125 881.675781 L 2884.195312 2712.617188 L 717.535156 380.671875 Z M 2688.15625 -1450.269531 "/></clipPath><clipPath id="3e145c4625"><path d="M 2739.207031 -1395.324219 L 4803.765625 826.730469 C 4831.957031 857.074219 4830.214844 904.53125 4799.871094 932.726562 L 2941.597656 2659.285156 C 2911.25 2687.476562 2863.796875 2685.734375 2835.601562 2655.390625 L 771.042969 433.332031 C 742.851562 402.988281 744.59375 355.53125 774.9375 327.339844 L 2633.210938 -1399.21875 C 2663.558594 -1427.414062 2711.011719 -1425.671875 2739.207031 -1395.324219 Z M 2739.207031 -1395.324219 "/></clipPath></defs><g id="bbbf6e4322"><rect x="0" width="1440" y="0" height="809.999993" style="fill:#ffffff;fill-opacity:1;stroke:none;"/><rect x="0" width="1440" y="0" height="809.999993" style="fill:#ffffff;fill-opacity:1;stroke:none;"/><g mask="url(#8b8a1c886c)" transform="matrix(1,0,0,1,796,0.000000000000039746)"><g clip-path="url(#4a801306a5)"><g clip-rule="nonzero" clip-path="url(#d03063f825)"><g clip-rule="nonzero" clip-path="url(#944e8cee3f)"><g clip-rule="nonzero" clip-path="url(#f265f4beff)"><path style=" stroke:none;fill-rule:nonzero;fill:#26af5f;fill-opacity:1;" d="M 593.171875 -314.425781 L 1163.457031 299.367188 L 570.511719 850.285156 L 0.226562 236.492188 Z M 593.171875 -314.425781 "/></g></g></g></g><mask id="8b8a1c886c"><g filter="url(#8b840a25ee)"><rect x="0" width="1440" y="0" height="809.999993" style="fill:#000000;fill-opacity:0.36;stroke:none;"/></g></mask></g><g mask="url(#c3ccd6e104)" transform="matrix(1,0,0,1,764,161)"><g clip-path="url(#e16d3efd56)"><g clip-rule="nonzero" clip-path="url(#2891394fef)"><g clip-rule="nonzero" clip-path="url(#c14de3a35d)"><g clip-rule="nonzero" clip-path="url(#f8a0b291de)"><path style=" stroke:none;fill-rule:nonzero;fill:#25b060;fill-opacity:1;" d="M 593.148438 0.464844 L 1163.433594 614.253906 L 570.488281 1165.171875 L 0.203125 551.382812 Z M 593.148438 0.464844 "/></g></g></g></g><mask id="c3ccd6e104"><g filter="url(#8b840a25ee)"><rect x="0" width="1440" y="0" height="809.999993" style="fill:#000000;fill-opacity:0.36;stroke:none;"/></g></mask></g><g clip-rule="nonzero" clip-path="url(#c8b50cfc0f)"><g clip-rule="nonzero" clip-path="url(#e69b05745f)"><g clip-rule="nonzero" clip-path="url(#3e145c4625)"><path style=" stroke:none;fill-rule:nonzero;fill:#28a15a;fill-opacity:1;" d="M 2688.15625 -1450.269531 L 4854.8125 881.675781 L 2886.972656 2710.035156 L 720.316406 378.089844 Z M 2688.15625 -1450.269531 "/></g></g></g></g></svg>